<svg width="32" height="32" viewBox="0 0 32 32" fill="none" xmlns="http://www.w3.org/2000/svg">
<g clip-path="url(#clip0_0_1)">
<path d="M7.55556 16C11.7284 16 15.1111 12.6173 15.1111 8.44444C15.1111 4.27163 11.7284 0.888888 7.55556 0.888888C3.38274 0.888888 0 4.27163 0 8.44444C0 12.6173 3.38274 16 7.55556 16Z" fill="#FFD975"/>
<path d="M24.4444 16C28.6173 16 32 12.6173 32 8.44444C32 4.27163 28.6173 0.888888 24.4444 0.888888C20.2716 0.888888 16.8889 4.27163 16.8889 8.44444C16.8889 12.6173 20.2716 16 24.4444 16Z" fill="#FFD975"/>
<path d="M12.3662 5.20356C11.7941 4.4655 11.0606 3.86816 10.222 3.45725C9.38338 3.04634 8.46187 2.83277 7.528 2.83289C5.9 2.83312 4.33874 3.47995 3.18757 4.63112C2.0364 5.78229 1.38957 7.34355 1.38934 8.97156C1.38987 10.1406 1.72449 11.2852 2.3538 12.2704C2.9831 13.2556 3.88087 14.0404 4.94134 14.5324C5.57156 10.8036 8.48178 6.824 12.3662 5.20356V5.20356ZM24.472 2.83378C23.5381 2.83353 22.6166 3.04704 21.7779 3.45796C20.9393 3.86887 20.2059 4.46629 19.6338 5.20444C23.5173 6.82489 26.4276 10.8044 27.0596 14.5342C28.3277 13.9459 29.3568 12.9422 29.9766 11.6892C30.5965 10.4362 30.7698 9.00906 30.4679 7.64411C30.1661 6.27917 29.4071 5.05824 28.3168 4.18346C27.2264 3.30868 25.8699 2.83251 24.472 2.83378V2.83378Z" fill="#EB95A1"/>
<path d="M30.2222 20.0827C28.4444 11.1538 20.1484 14.3049 16 14.3049C11.8516 14.3049 3.55556 11.1529 1.77778 20.0827C0.626667 25.864 5.15022 28.864 9.80622 30.2044C11.2729 31.2996 13.5022 32 16 32C18.4978 32 20.7271 31.2996 22.1947 30.2036C26.8498 28.8631 31.3733 25.864 30.2222 20.0827Z" fill="#FEE7C3"/>
<path d="M27.2 16C27.2 25.7778 22.1858 21.3333 16 21.3333C9.81423 21.3333 4.8 25.7778 4.8 16C4.8 10.8453 9.81423 4.44444 16 4.44444C22.1858 4.44444 27.2 10.8453 27.2 16Z" fill="#FFD975"/>
<path d="M18.5822 24.8498C18.5822 26.2756 16.7938 27.8293 16 27.8293C15.2053 27.8293 13.4178 26.2756 13.4178 24.8498C13.4178 23.4231 15.0062 23.1111 16 23.1111C16.9929 23.1111 18.5822 23.4231 18.5822 24.8498Z" fill="#EB95A1"/>
<path d="M31.5689 26.936C26.9067 24.1396 20.5867 25.0027 20.3191 25.04C20.3067 25.0418 20.2987 25.0498 20.2862 25.0516C20.2142 25.0649 20.1502 25.0942 20.0836 25.1236C20.0427 25.1422 20.0009 25.1547 19.9644 25.1787C19.9102 25.2133 19.8693 25.2604 19.824 25.3067C19.7876 25.3431 19.7493 25.3742 19.72 25.416C19.688 25.4622 19.6702 25.5147 19.6471 25.5671C19.6231 25.6222 19.5956 25.6747 19.584 25.7351C19.5804 25.7493 19.5707 25.76 19.568 25.7751C19.56 25.824 19.5733 25.8684 19.5733 25.9164C19.5724 25.96 19.5591 26.0009 19.5653 26.0462C19.5671 26.0604 19.576 26.0702 19.5787 26.0836C19.5902 26.1449 19.6151 26.1991 19.6382 26.2551C19.6596 26.3084 19.6773 26.3618 19.7084 26.4089C19.7333 26.448 19.768 26.4764 19.7982 26.5111C19.8453 26.5627 19.8907 26.6124 19.9476 26.6516C19.9813 26.6747 20.0213 26.688 20.0587 26.7067C20.1244 26.7387 20.1884 26.7689 20.2622 26.784C20.2756 26.7867 20.2853 26.7956 20.2987 26.7982C20.3484 26.8071 25.3084 27.6667 27.7333 30.8987C27.9076 31.1324 28.1742 31.2542 28.4453 31.2542C28.6105 31.2546 28.7724 31.2089 28.913 31.1222C29.0535 31.0355 29.1671 30.9114 29.2409 30.7636C29.3147 30.6159 29.3458 30.4506 29.3307 30.2861C29.3157 30.1217 29.255 29.9647 29.1556 29.8329C28.1707 28.5182 26.8684 27.552 25.5778 26.8382C27.2489 27.0533 29.0818 27.5182 30.6542 28.4613C30.7542 28.5217 30.8651 28.5617 30.9806 28.579C31.0961 28.5964 31.2138 28.5908 31.3271 28.5626C31.4404 28.5343 31.547 28.484 31.6409 28.4145C31.7347 28.3449 31.8138 28.2575 31.8738 28.1573C32.1262 27.7342 31.9893 27.1884 31.5689 26.936V26.936ZM12.2924 26.4062C12.3227 26.36 12.3396 26.3076 12.3609 26.256C12.384 26.1991 12.4098 26.1458 12.4213 26.0844C12.424 26.0702 12.4329 26.0596 12.4356 26.0453C12.4418 25.9982 12.4284 25.9538 12.4276 25.9084C12.4276 25.8631 12.44 25.8196 12.432 25.7742C12.4302 25.76 12.4204 25.7502 12.4178 25.736C12.4044 25.6747 12.3778 25.6196 12.352 25.5636C12.3298 25.5129 12.312 25.4613 12.2809 25.4169C12.2524 25.3751 12.2142 25.344 12.1787 25.3076C12.1333 25.2604 12.0907 25.2142 12.0364 25.1778C12.0009 25.1556 11.9591 25.1431 11.92 25.1244C11.8551 25.0921 11.7864 25.0679 11.7156 25.0524C11.7031 25.0498 11.6942 25.0418 11.6818 25.04C11.4142 25.0027 5.09333 24.1387 0.432001 26.936C0.328329 26.9942 0.237391 27.0726 0.164569 27.1666C0.0917478 27.2606 0.038523 27.3683 0.00804567 27.4832C-0.0224317 27.5981 -0.0295421 27.718 -0.0128648 27.8357C0.00381257 27.9534 0.0439387 28.0666 0.105138 28.1686C0.166338 28.2705 0.247368 28.3591 0.34343 28.4292C0.439493 28.4993 0.548636 28.5494 0.664398 28.5765C0.780161 28.6036 0.900191 28.6072 1.01738 28.5872C1.13457 28.5671 1.24654 28.5237 1.34667 28.4596C2.91822 27.5164 4.75111 27.0524 6.42133 26.8373C5.13156 27.5502 3.83022 28.5173 2.84533 29.8311C2.74589 29.9629 2.68522 30.1199 2.67014 30.2843C2.65507 30.4488 2.68619 30.6142 2.75999 30.7619C2.8338 30.9096 2.94738 31.0338 3.08793 31.1204C3.22848 31.2071 3.39043 31.2528 3.55556 31.2524C3.6937 31.2526 3.82998 31.2205 3.95357 31.1588C4.07716 31.0971 4.18467 31.0074 4.26756 30.8969C6.68267 27.6773 11.6542 26.8044 11.704 26.7964C11.7173 26.7938 11.7262 26.7858 11.7396 26.7822C11.808 26.768 11.8676 26.7387 11.9298 26.7093C11.9724 26.6898 12.0178 26.6747 12.056 26.648C12.1084 26.6124 12.1484 26.5653 12.1911 26.52C12.2258 26.4827 12.264 26.4498 12.2924 26.4062V26.4062Z" fill="#6E6B6C"/>
<path d="M8.88889 17.7778C8.88889 17.7778 8.88889 16 10.6667 16C12.4444 16 12.4444 17.7778 12.4444 17.7778V19.5556C12.4444 19.5556 12.4444 21.3333 10.6667 21.3333C8.88889 21.3333 8.88889 19.5556 8.88889 19.5556V17.7778ZM19.5556 17.7778C19.5556 17.7778 19.5556 16 21.3333 16C23.1111 16 23.1111 17.7778 23.1111 17.7778V19.5556C23.1111 19.5556 23.1111 21.3333 21.3333 21.3333C19.5556 21.3333 19.5556 19.5556 19.5556 19.5556V17.7778Z" fill="#272B2B"/>
<path d="M29.1656 31.7757C28.916 31.7757 28.6765 31.6765 28.5 31.5C28.3235 31.3235 28.2243 31.084 28.2243 30.8344L28.3538 18.6294C28.3538 18.3797 28.4529 18.1403 28.6295 17.9638C28.806 17.7872 29.0455 17.688 29.2951 17.688C29.5448 17.688 29.7842 17.7872 29.9607 17.9638C30.1373 18.1403 30.2364 18.3797 30.2364 18.6294L30.107 30.8353C30.1065 31.0847 30.0071 31.3238 29.8307 31.5001C29.6542 31.6763 29.4151 31.7755 29.1656 31.7757Z" fill="#292F33"/>
<path d="M29.1182 16.6471C29.0702 16.6471 29.0249 16.6578 28.9778 16.6613C28.3271 13.4364 25.4729 11 22.0587 11C18.1662 11 15 14.1662 15 18.0587C15 21.9511 18.1662 25.1173 22.0587 25.1173C25.1413 25.1173 27.7618 23.128 28.7218 20.368C28.9804 20.4252 29.2483 20.4272 29.5077 20.3738C29.7672 20.3204 30.0125 20.2129 30.2276 20.0582C30.4426 19.9035 30.6226 19.7052 30.7558 19.4762C30.889 19.2472 30.9723 18.9926 31.0004 18.7292C31.0285 18.4658 31.0006 18.1994 30.9187 17.9475C30.8367 17.6956 30.7026 17.4638 30.5249 17.2672C30.3473 17.0707 30.1302 16.9139 29.8878 16.8071C29.6454 16.7002 29.3831 16.6457 29.1182 16.6471ZM22.0587 23.2356C19.2044 23.2356 16.8827 20.9138 16.8827 18.0587C16.8827 15.2036 19.2053 12.8818 22.0587 12.8818C24.9129 12.8818 27.2356 15.2036 27.2356 18.0587C27.2356 20.9138 24.9129 23.2356 22.0587 23.2356Z" fill="#67757F"/>
</g>
<defs>
<clipPath id="clip0_0_1">
<rect width="32" height="32" fill="white"/>
</clipPath>
</defs>
</svg>
